<?xml version="1.0" encoding="UTF-8"?><svg xmlns="http://www.w3.org/2000/svg" version="1.1" viewBox="0 0 169.36 161.69">
<!-- Generator: Adobe Illustrator 29.4.0, SVG Export Plug-In . SVG Version: 2.1.0 Build 152)  -->
<defs>
<style>
.st0 {
fill: #fff;
}
.st0, .st1, .st2, .st3, .st4, .st5, .st6, .st7, .st8, .st9, .st10, .st11, .st12, .st13 {
isolation: isolate;
}
.st0, .st2, .st4 {
stroke-width: .3px;
}
.st0, .st2, .st4, .st5 {
mix-blend-mode: multiply;
stroke: #b5b5b1;
stroke-miterlimit: 10;
}
.st1 {
fill: #e5241e;
}
.st1, .st3 {
font-family: Arial-BoldMT, Arial;
font-size: 4.9px;
font-weight: 700;
}
.st2 {
fill: #b6d3cf;
}
.st3 {
fill: #1d1d1b;
}
.st4 {
fill: #e5e5e5;
}
.st5 {
fill: #d9d7d7;
stroke-width: .5px;
}
.st7 {
letter-spacing: 1.6em;
}
.st7, .st8, .st9, .st10, .st11, .st12, .st13 {
font-family: AcuminProWide-Regular, 'Acumin Pro Wide';
font-size: 5px;
}
.st8 {
letter-spacing: 1.61em;
}
.st9 {
letter-spacing: 1.61em;
}
.st10 {
letter-spacing: 1.64em;
}
.st11 {
letter-spacing: 1.63em;
}
.st12 {
letter-spacing: 1.62em;
}
.st13 {
letter-spacing: 1.5em;
}
</style>
</defs>
<g class="st6">
<g id="PIANTINA">
<g id="GALLERIA">
<g id="GALLERIA_FILA_C">
<g id="GALLERIA_C12">
<g class="st6">
<text class="st3" transform="translate(156.85 152.24)"><tspan x="0" y="0">12</tspan></text>
</g>
<rect class="posto posto st0" data-posto="GALLERIA_C12" data-zona="GALLERIA" x="154.45" y="145.64" width="10.6" height="10.6" rx="2.1" ry="2.1"/>
</g>
<g id="GALLERIA_C11">
<g class="st6">
<g class="st6">
<text class="st3" transform="translate(143.65 152.24)"><tspan x="0" y="0">1</tspan></text>
</g>
<g class="st6">
<text class="st3" transform="translate(146.1 152.24)"><tspan x="0" y="0">1</tspan></text>
</g>
</g>
<rect class="posto posto st0" data-posto="GALLERIA_C11" data-zona="GALLERIA" x="141.05" y="145.64" width="10.6" height="10.6" rx="2.1" ry="2.1"/>
</g>
<g id="GALLERIA_C10">
<g class="st6">
<text class="st3" transform="translate(130.35 152.24)"><tspan x="0" y="0">10</tspan></text>
</g>
<rect class="posto posto st0" data-posto="GALLERIA_C10" data-zona="GALLERIA" x="127.65" y="145.64" width="10.6" height="10.6" rx="2.1" ry="2.1"/>
</g>
<g id="GALLERIA_C9">
<g class="st6">
<text class="st3" transform="translate(118.35 152.24)"><tspan x="0" y="0">9</tspan></text>
</g>
<rect class="posto posto st0" data-posto="GALLERIA_C9" data-zona="GALLERIA" x="114.35" y="145.64" width="10.6" height="10.6" rx="2.1" ry="2.1"/>
</g>
<g id="GALLERIA_C8">
<g class="st6">
<text class="st3" transform="translate(104.95 152.24)"><tspan x="0" y="0">8</tspan></text>
</g>
<rect class="posto posto st0" data-posto="GALLERIA_C8" data-zona="GALLERIA" x="100.95" y="145.64" width="10.6" height="10.6" rx="2.1" ry="2.1"/>
</g>
<g id="GALLERIA_C7">
<g class="st6">
<text class="st3" transform="translate(91.55 152.24)"><tspan x="0" y="0">7</tspan></text>
</g>
<rect class="posto posto st0" data-posto="GALLERIA_C7" data-zona="GALLERIA" x="87.65" y="145.64" width="10.6" height="10.6" rx="2.1" ry="2.1"/>
</g>
<g id="GALLERIA_C6">
<g class="st6">
<text class="st3" transform="translate(78.25 152.24)"><tspan x="0" y="0">6</tspan></text>
</g>
<rect class="posto posto st0" data-posto="GALLERIA_C6" data-zona="GALLERIA" x="74.25" y="145.64" width="10.6" height="10.6" rx="2.1" ry="2.1"/>
</g>
<g id="GALLERIA_C5">
<g class="st6">
<text class="st3" transform="translate(64.85 152.24)"><tspan x="0" y="0">5</tspan></text>
</g>
<rect class="posto posto st0" data-posto="GALLERIA_C5" data-zona="GALLERIA" x="60.85" y="145.64" width="10.6" height="10.6" rx="2.1" ry="2.1"/>
</g>
<g id="GALLERIA_C4">
<g class="st6">
<text class="st3" transform="translate(51.35 152.24)"><tspan x="0" y="0">4</tspan></text>
</g>
<rect class="posto posto st0" data-posto="GALLERIA_C4" data-zona="GALLERIA" x="47.35" y="145.64" width="10.6" height="10.6" rx="2.1" ry="2.1"/>
</g>
<g id="GALLERIA_C3">
<g class="st6">
<text class="st3" transform="translate(37.95 152.24)"><tspan x="0" y="0">3</tspan></text>
</g>
<rect class="posto posto st0" data-posto="GALLERIA_C3" data-zona="GALLERIA" x="33.95" y="145.64" width="10.6" height="10.6" rx="2.1" ry="2.1"/>
</g>
<g id="GALLERIA_C2">
<g class="st6">
<text class="st3" transform="translate(24.55 152.24)"><tspan x="0" y="0">2</tspan></text>
</g>
<rect class="posto posto st0" data-posto="GALLERIA_C2" data-zona="GALLERIA" x="20.65" y="145.64" width="10.6" height="10.6" rx="2.1" ry="2.1"/>
</g>
<g id="GALLERIA_C1">
<g class="st6">
<text class="st3" transform="translate(11.25 152.24)"><tspan x="0" y="0">1</tspan></text>
</g>
<rect class="posto posto st0" data-posto="GALLERIA_C1" data-zona="GALLERIA" x="7.25" y="145.64" width="10.6" height="10.6" rx="2.1" ry="2.1"/>
</g>
</g>
<g id="GALLERIA_FILA_B">
<g id="GALLERIA_B12">
<g class="st6">
<text class="st3" transform="translate(156.85 137.84)"><tspan x="0" y="0">12</tspan></text>
</g>
<rect class="posto posto st0" data-posto="GALLERIA_B12" data-zona="GALLERIA" x="154.45" y="131.24" width="10.6" height="10.6" rx="2.1" ry="2.1"/>
</g>
<g id="GALLERIA_B11">
<g class="st6">
<g class="st6">
<text class="st3" transform="translate(143.65 137.84)"><tspan x="0" y="0">1</tspan></text>
</g>
<g class="st6">
<text class="st3" transform="translate(146.1 137.84)"><tspan x="0" y="0">1</tspan></text>
</g>
</g>
<rect class="posto posto st0" data-posto="GALLERIA_B11" data-zona="GALLERIA" x="141.05" y="131.24" width="10.6" height="10.6" rx="2.1" ry="2.1"/>
</g>
<g id="GALLERIA_B10">
<g class="st6">
<text class="st3" transform="translate(130.35 137.84)"><tspan x="0" y="0">10</tspan></text>
</g>
<rect class="posto posto st0" data-posto="GALLERIA_B10" data-zona="GALLERIA" x="127.65" y="131.24" width="10.6" height="10.6" rx="2.1" ry="2.1"/>
</g>
<g id="GALLERIA_B9">
<g class="st6">
<text class="st3" transform="translate(118.35 137.84)"><tspan x="0" y="0">9</tspan></text>
</g>
<rect class="posto posto st0" data-posto="GALLERIA_B9" data-zona="GALLERIA" x="114.35" y="131.24" width="10.6" height="10.6" rx="2.1" ry="2.1"/>
</g>
<g id="GALLERIA_B8">
<g class="st6">
<text class="st3" transform="translate(104.95 137.84)"><tspan x="0" y="0">8</tspan></text>
</g>
<rect class="posto posto st0" data-posto="GALLERIA_B8" data-zona="GALLERIA" x="100.95" y="131.24" width="10.6" height="10.6" rx="2.1" ry="2.1"/>
</g>
<g id="GALLERIA_B7">
<g class="st6">
<text class="st3" transform="translate(91.55 137.84)"><tspan x="0" y="0">7</tspan></text>
</g>
<rect class="posto posto st0" data-posto="GALLERIA_B7" data-zona="GALLERIA" x="87.65" y="131.24" width="10.6" height="10.6" rx="2.1" ry="2.1"/>
</g>
<g id="GALLERIA_B6">
<g class="st6">
<text class="st3" transform="translate(78.25 137.84)"><tspan x="0" y="0">6</tspan></text>
</g>
<rect class="posto posto st0" data-posto="GALLERIA_B6" data-zona="GALLERIA" x="74.25" y="131.24" width="10.6" height="10.6" rx="2.1" ry="2.1"/>
</g>
<g id="GALLERIA_B5">
<g class="st6">
<text class="st3" transform="translate(64.85 137.84)"><tspan x="0" y="0">5</tspan></text>
</g>
<rect class="posto posto st0" data-posto="GALLERIA_B5" data-zona="GALLERIA" x="60.85" y="131.24" width="10.6" height="10.6" rx="2.1" ry="2.1"/>
</g>
<g id="GALLERIA_B4">
<g class="st6">
<text class="st3" transform="translate(51.35 137.84)"><tspan x="0" y="0">4</tspan></text>
</g>
<rect class="posto posto st0" data-posto="GALLERIA_B4" data-zona="GALLERIA" x="47.35" y="131.24" width="10.6" height="10.6" rx="2.1" ry="2.1"/>
</g>
<g id="GALLERIA_B3">
<g class="st6">
<text class="st3" transform="translate(37.95 137.84)"><tspan x="0" y="0">3</tspan></text>
</g>
<rect class="posto posto st0" data-posto="GALLERIA_B3" data-zona="GALLERIA" x="33.95" y="131.24" width="10.6" height="10.6" rx="2.1" ry="2.1"/>
</g>
<g id="GALLERIA_B2">
<g class="st6">
<text class="st3" transform="translate(24.55 137.84)"><tspan x="0" y="0">2</tspan></text>
</g>
<rect class="posto posto st0" data-posto="GALLERIA_B2" data-zona="GALLERIA" x="20.65" y="131.24" width="10.6" height="10.6" rx="2.1" ry="2.1"/>
</g>
<g id="GALLERIA_B1">
<g class="st6">
<text class="st3" transform="translate(11.25 137.84)"><tspan x="0" y="0">1</tspan></text>
</g>
<rect class="posto posto st0" data-posto="GALLERIA_B1" data-zona="GALLERIA" x="7.25" y="131.24" width="10.6" height="10.6" rx="2.1" ry="2.1"/>
</g>
</g>
<g id="GALLERIA_FILA_A">
<g id="GALLERIA_A12">
<g class="st6">
<text class="st3" transform="translate(156.85 122.94)"><tspan x="0" y="0">12</tspan></text>
</g>
<rect class="posto posto st0" data-posto="GALLERIA_A12" data-zona="GALLERIA" x="154.45" y="116.34" width="10.6" height="10.6" rx="2.1" ry="2.1"/>
</g>
<g id="GALLERIA_A11">
<g class="st6">
<g class="st6">
<text class="st3" transform="translate(143.65 122.94)"><tspan x="0" y="0">1</tspan></text>
</g>
<g class="st6">
<text class="st3" transform="translate(146.1 122.94)"><tspan x="0" y="0">1</tspan></text>
</g>
</g>
<rect class="posto posto st0" data-posto="GALLERIA_A11" data-zona="GALLERIA" x="141.05" y="116.34" width="10.6" height="10.6" rx="2.1" ry="2.1"/>
</g>
<g id="GALLERIA_A10">
<g class="st6">
<text class="st3" transform="translate(130.35 122.94)"><tspan x="0" y="0">10</tspan></text>
</g>
<rect class="posto posto st0" data-posto="GALLERIA_A10" data-zona="GALLERIA" x="127.65" y="116.34" width="10.6" height="10.6" rx="2.1" ry="2.1"/>
</g>
<g id="GALLERIA_A9">
<g class="st6">
<text class="st3" transform="translate(118.35 122.94)"><tspan x="0" y="0">9</tspan></text>
</g>
<rect class="posto posto st0" data-posto="GALLERIA_A9" data-zona="GALLERIA" x="114.35" y="116.34" width="10.6" height="10.6" rx="2.1" ry="2.1"/>
</g>
<g id="GALLERIA_A8">
<g class="st6">
<text class="st3" transform="translate(104.95 122.94)"><tspan x="0" y="0">8</tspan></text>
</g>
<rect class="posto posto st0" data-posto="GALLERIA_A8" data-zona="GALLERIA" x="100.95" y="116.34" width="10.6" height="10.6" rx="2.1" ry="2.1"/>
</g>
<g id="GALLERIA_A7">
<g class="st6">
<text class="st3" transform="translate(91.55 122.94)"><tspan x="0" y="0">7</tspan></text>
</g>
<rect class="posto posto st0" data-posto="GALLERIA_A7" data-zona="GALLERIA" x="87.65" y="116.34" width="10.6" height="10.6" rx="2.1" ry="2.1"/>
</g>
<g id="GALLERIA_A6">
<g class="st6">
<text class="st3" transform="translate(78.25 122.94)"><tspan x="0" y="0">6</tspan></text>
</g>
<rect class="posto posto st0" data-posto="GALLERIA_A6" data-zona="GALLERIA" x="74.25" y="116.34" width="10.6" height="10.6" rx="2.1" ry="2.1"/>
</g>
<g id="GALLERIA_A5">
<g class="st6">
<text class="st3" transform="translate(64.85 122.94)"><tspan x="0" y="0">5</tspan></text>
</g>
<rect class="posto posto st0" data-posto="GALLERIA_A5" data-zona="GALLERIA" x="60.85" y="116.34" width="10.6" height="10.6" rx="2.1" ry="2.1"/>
</g>
<g id="GALLERIA_A4">
<g class="st6">
<text class="st3" transform="translate(51.35 122.94)"><tspan x="0" y="0">4</tspan></text>
</g>
<rect class="posto posto st0" data-posto="GALLERIA_A4" data-zona="GALLERIA" x="47.35" y="116.34" width="10.6" height="10.6" rx="2.1" ry="2.1"/>
</g>
<g id="GALLERIA_A3">
<g class="st6">
<text class="st3" transform="translate(37.95 122.94)"><tspan x="0" y="0">3</tspan></text>
</g>
<rect class="posto posto st0" data-posto="GALLERIA_A3" data-zona="GALLERIA" x="33.95" y="116.34" width="10.6" height="10.6" rx="2.1" ry="2.1"/>
</g>
<g id="GALLERIA_A2">
<g class="st6">
<text class="st3" transform="translate(24.55 122.94)"><tspan x="0" y="0">2</tspan></text>
</g>
<rect class="posto posto st0" data-posto="GALLERIA_A2" data-zona="GALLERIA" x="20.65" y="116.34" width="10.6" height="10.6" rx="2.1" ry="2.1"/>
</g>
<g id="GALLERIA_A1">
<g class="st6">
<text class="st3" transform="translate(11.25 122.94)"><tspan x="0" y="0">1</tspan></text>
</g>
<rect class="posto posto st0" data-posto="GALLERIA_A1" data-zona="GALLERIA" x="7.25" y="116.34" width="10.6" height="10.6" rx="2.1" ry="2.1"/>
</g>
</g>
</g>
<g id="PLATEA">
<g id="PLATEA_FILA_C1">
<g id="PLATEA_C12">
<g class="st6">
<text class="st3" transform="translate(157.01 96.2)"><tspan x="0" y="0">12</tspan></text>
</g>
<rect class="posto posto st4" data-posto="PLATEA_C12" data-zona="PLATEA" x="154.61" y="89.6" width="10.6" height="10.6" rx="2.1" ry="2.1"/>
</g>
<g id="PLATEA_C11">
<g class="st6">
<g class="st6">
<text class="st3" transform="translate(143.81 96.2)"><tspan x="0" y="0">1</tspan></text>
</g>
<g class="st6">
<text class="st3" transform="translate(146.26 96.2)"><tspan x="0" y="0">1</tspan></text>
</g>
</g>
<rect class="posto posto st4" data-posto="PLATEA_C11" data-zona="PLATEA" x="141.21" y="89.6" width="10.6" height="10.6" rx="2.1" ry="2.1"/>
</g>
<g id="PLATEA_C10">
<g class="st6">
<text class="st3" transform="translate(130.51 96.2)"><tspan x="0" y="0">10</tspan></text>
</g>
<rect class="posto posto st4" data-posto="PLATEA_C10" data-zona="PLATEA" x="127.81" y="89.6" width="10.6" height="10.6" rx="2.1" ry="2.1"/>
</g>
<g id="PLATEA_C9">
<g class="st6">
<text class="st3" transform="translate(118.51 96.2)"><tspan x="0" y="0">9</tspan></text>
</g>
<rect class="posto posto st4" data-posto="PLATEA_C9" data-zona="PLATEA" x="114.51" y="89.6" width="10.6" height="10.6" rx="2.1" ry="2.1"/>
</g>
<g id="PLATEA_C8">
<g class="st6">
<text class="st3" transform="translate(105.11 96.2)"><tspan x="0" y="0">8</tspan></text>
</g>
<rect class="posto posto st4" data-posto="PLATEA_C8" data-zona="PLATEA" x="101.11" y="89.6" width="10.6" height="10.6" rx="2.1" ry="2.1"/>
</g>
<g id="PLATEA_C7">
<g class="st6">
<text class="st3" transform="translate(91.71 96.2)"><tspan x="0" y="0">7</tspan></text>
</g>
<rect class="posto posto st4" data-posto="PLATEA_C7" data-zona="PLATEA" x="87.81" y="89.6" width="10.6" height="10.6" rx="2.1" ry="2.1"/>
</g>
<g id="PLATEA_C6">
<g class="st6">
<text class="st3" transform="translate(78.41 96.2)"><tspan x="0" y="0">6</tspan></text>
</g>
<rect class="posto posto st4" data-posto="PLATEA_C6" data-zona="PLATEA" x="74.41" y="89.6" width="10.6" height="10.6" rx="2.1" ry="2.1"/>
</g>
<g id="PLATEA_C5">
<g class="st6">
<text class="st3" transform="translate(65.01 96.2)"><tspan x="0" y="0">5</tspan></text>
</g>
<rect class="posto posto st4" data-posto="PLATEA_C5" data-zona="PLATEA" x="61.01" y="89.6" width="10.6" height="10.6" rx="2.1" ry="2.1"/>
</g>
<g id="PLATEA_C4">
<g class="st6">
<text class="st3" transform="translate(51.51 96.2)"><tspan x="0" y="0">4</tspan></text>
</g>
<rect class="posto posto st4" data-posto="PLATEA_C4" data-zona="PLATEA" x="47.51" y="89.6" width="10.6" height="10.6" rx="2.1" ry="2.1"/>
</g>
<g id="PLATEA_C3">
<g class="st6">
<text class="st3" transform="translate(38.11 96.2)"><tspan x="0" y="0">3</tspan></text>
</g>
<rect class="posto posto st4" data-posto="PLATEA_C3" data-zona="PLATEA" x="34.11" y="89.6" width="10.6" height="10.6" rx="2.1" ry="2.1"/>
</g>
<g id="PLATEA_C2">
<g class="st6">
<text class="st3" transform="translate(24.71 96.2)"><tspan x="0" y="0">2</tspan></text>
</g>
<rect class="posto posto st4" data-posto="PLATEA_C2" data-zona="PLATEA" x="20.81" y="89.6" width="10.6" height="10.6" rx="2.1" ry="2.1"/>
</g>
<g id="PLATEA_C1">
<g class="st6">
<text class="st3" transform="translate(11.41 96.2)"><tspan x="0" y="0">1</tspan></text>
</g>
<rect class="posto posto st4" data-posto="PLATEA_C1" data-zona="PLATEA" x="7.41" y="89.6" width="10.6" height="10.6" rx="2.1" ry="2.1"/>
</g>
</g>
<g id="PLATEA_FILA_B1">
<g id="PLATEA_B12">
<g class="st6">
<text class="st3" transform="translate(157.01 81.8)"><tspan x="0" y="0">12</tspan></text>
</g>
<rect class="posto posto st4" data-posto="PLATEA_B12" data-zona="PLATEA" x="154.61" y="75.2" width="10.6" height="10.6" rx="2.1" ry="2.1"/>
</g>
<g id="PLATEA_B11">
<g class="st6">
<g class="st6">
<text class="st3" transform="translate(143.81 81.8)"><tspan x="0" y="0">1</tspan></text>
</g>
<g class="st6">
<text class="st3" transform="translate(146.26 81.8)"><tspan x="0" y="0">1</tspan></text>
</g>
</g>
<rect class="posto posto st4" data-posto="PLATEA_B11" data-zona="PLATEA" x="141.21" y="75.2" width="10.6" height="10.6" rx="2.1" ry="2.1"/>
</g>
<g id="PLATEA_B10">
<g class="st6">
<text class="st3" transform="translate(130.51 81.8)"><tspan x="0" y="0">10</tspan></text>
</g>
<rect class="posto posto st4" data-posto="PLATEA_B10" data-zona="PLATEA" x="127.81" y="75.2" width="10.6" height="10.6" rx="2.1" ry="2.1"/>
</g>
<g id="PLATEA_B9">
<g class="st6">
<text class="st3" transform="translate(118.51 81.8)"><tspan x="0" y="0">9</tspan></text>
</g>
<rect class="posto posto st4" data-posto="PLATEA_B9" data-zona="PLATEA" x="114.51" y="75.2" width="10.6" height="10.6" rx="2.1" ry="2.1"/>
</g>
<g id="PLATEA_B8">
<g class="st6">
<text class="st3" transform="translate(105.11 81.8)"><tspan x="0" y="0">8</tspan></text>
</g>
<rect class="posto posto st4" data-posto="PLATEA_B8" data-zona="PLATEA" x="101.11" y="75.2" width="10.6" height="10.6" rx="2.1" ry="2.1"/>
</g>
<g id="PLATEA_B7">
<g class="st6">
<text class="st3" transform="translate(91.71 81.8)"><tspan x="0" y="0">7</tspan></text>
</g>
<rect class="posto posto st4" data-posto="PLATEA_B7" data-zona="PLATEA" x="87.81" y="75.2" width="10.6" height="10.6" rx="2.1" ry="2.1"/>
</g>
<g id="PLATEA_B6">
<g class="st6">
<text class="st3" transform="translate(78.41 81.8)"><tspan x="0" y="0">6</tspan></text>
</g>
<rect class="posto posto st4" data-posto="PLATEA_B6" data-zona="PLATEA" x="74.41" y="75.2" width="10.6" height="10.6" rx="2.1" ry="2.1"/>
</g>
<g id="PLATEA_B5">
<g class="st6">
<text class="st3" transform="translate(65.01 81.8)"><tspan x="0" y="0">5</tspan></text>
</g>
<rect class="posto posto st4" data-posto="PLATEA_B5" data-zona="PLATEA" x="61.01" y="75.2" width="10.6" height="10.6" rx="2.1" ry="2.1"/>
</g>
<g id="PLATEA_B4">
<g class="st6">
<text class="st3" transform="translate(51.51 81.8)"><tspan x="0" y="0">4</tspan></text>
</g>
<rect class="posto posto st4" data-posto="PLATEA_B4" data-zona="PLATEA" x="47.51" y="75.2" width="10.6" height="10.6" rx="2.1" ry="2.1"/>
</g>
<g id="PLATEA_B3">
<g class="st6">
<text class="st3" transform="translate(38.11 81.8)"><tspan x="0" y="0">3</tspan></text>
</g>
<rect class="posto posto st4" data-posto="PLATEA_B3" data-zona="PLATEA" x="34.11" y="75.2" width="10.6" height="10.6" rx="2.1" ry="2.1"/>
</g>
<g id="PLATEA_B2">
<g class="st6">
<text class="st3" transform="translate(24.71 81.8)"><tspan x="0" y="0">2</tspan></text>
</g>
<rect class="posto posto st4" data-posto="PLATEA_B2" data-zona="PLATEA" x="20.81" y="75.2" width="10.6" height="10.6" rx="2.1" ry="2.1"/>
</g>
<g id="PLATEA_B1">
<g class="st6">
<text class="st3" transform="translate(11.41 81.8)"><tspan x="0" y="0">1</tspan></text>
</g>
<rect class="posto posto st4" data-posto="PLATEA_B1" data-zona="PLATEA" x="7.41" y="75.2" width="10.6" height="10.6" rx="2.1" ry="2.1"/>
</g>
</g>
<g id="PLATEA_FILA_A1">
<g id="PLATEA_A12">
<g class="st6">
<text class="st3" transform="translate(157.01 66.9)"><tspan x="0" y="0">12</tspan></text>
</g>
<rect class="posto posto st4" data-posto="PLATEA_A12" data-zona="PLATEA" x="154.61" y="60.3" width="10.6" height="10.6" rx="2.1" ry="2.1"/>
</g>
<g id="PLATEA_A11">
<g class="st6">
<g class="st6">
<text class="st3" transform="translate(143.81 66.9)"><tspan x="0" y="0">1</tspan></text>
</g>
<g class="st6">
<text class="st3" transform="translate(146.26 66.9)"><tspan x="0" y="0">1</tspan></text>
</g>
</g>
<rect class="posto posto st4" data-posto="PLATEA_A11" data-zona="PLATEA" x="141.21" y="60.3" width="10.6" height="10.6" rx="2.1" ry="2.1"/>
</g>
<g id="PLATEA_A10">
<g class="st6">
<text class="st3" transform="translate(130.51 66.9)"><tspan x="0" y="0">10</tspan></text>
</g>
<rect class="posto posto st4" data-posto="PLATEA_A10" data-zona="PLATEA" x="127.81" y="60.3" width="10.6" height="10.6" rx="2.1" ry="2.1"/>
</g>
<g id="PLATEA_A9">
<g class="st6">
<text class="st3" transform="translate(118.51 66.9)"><tspan x="0" y="0">9</tspan></text>
</g>
<rect class="posto posto st4" data-posto="PLATEA_A9" data-zona="PLATEA" x="114.51" y="60.3" width="10.6" height="10.6" rx="2.1" ry="2.1"/>
</g>
<g id="PLATEA_A8">
<g class="st6">
<text class="st3" transform="translate(105.11 66.9)"><tspan x="0" y="0">8</tspan></text>
</g>
<rect class="posto posto st4" data-posto="PLATEA_A8" data-zona="PLATEA" x="101.11" y="60.3" width="10.6" height="10.6" rx="2.1" ry="2.1"/>
</g>
<g id="PLATEA_A7">
<g class="st6">
<text class="st3" transform="translate(91.71 66.9)"><tspan x="0" y="0">7</tspan></text>
</g>
<rect class="posto posto st4" data-posto="PLATEA_A7" data-zona="PLATEA" x="87.81" y="60.3" width="10.6" height="10.6" rx="2.1" ry="2.1"/>
</g>
<g id="PLATEA_A6">
<g class="st6">
<text class="st3" transform="translate(78.41 66.9)"><tspan x="0" y="0">6</tspan></text>
</g>
<rect class="posto posto st4" data-posto="PLATEA_A6" data-zona="PLATEA" x="74.41" y="60.3" width="10.6" height="10.6" rx="2.1" ry="2.1"/>
</g>
<g id="PLATEA_A5">
<g class="st6">
<text class="st3" transform="translate(65.01 66.9)"><tspan x="0" y="0">5</tspan></text>
</g>
<rect class="posto posto st4" data-posto="PLATEA_A5" data-zona="PLATEA" x="61.01" y="60.3" width="10.6" height="10.6" rx="2.1" ry="2.1"/>
</g>
<g id="PLATEA_A4">
<g class="st6">
<text class="st3" transform="translate(51.51 66.9)"><tspan x="0" y="0">4</tspan></text>
</g>
<rect class="posto posto st4" data-posto="PLATEA_A4" data-zona="PLATEA" x="47.51" y="60.3" width="10.6" height="10.6" rx="2.1" ry="2.1"/>
</g>
<g id="PLATEA_A3">
<g class="st6">
<text class="st3" transform="translate(38.11 66.9)"><tspan x="0" y="0">3</tspan></text>
</g>
<rect class="posto posto st4" data-posto="PLATEA_A3" data-zona="PLATEA" x="34.11" y="60.3" width="10.6" height="10.6" rx="2.1" ry="2.1"/>
</g>
<g id="PLATEA_A2">
<g class="st6">
<text class="st3" transform="translate(24.71 66.9)"><tspan x="0" y="0">2</tspan></text>
</g>
<rect class="posto posto st4" data-posto="PLATEA_A2" data-zona="PLATEA" x="20.81" y="60.3" width="10.6" height="10.6" rx="2.1" ry="2.1"/>
</g>
<g id="PLATEA_A1">
<g class="st6">
<text class="st3" transform="translate(11.41 66.9)"><tspan x="0" y="0">1</tspan></text>
</g>
<rect class="posto posto st4" data-posto="PLATEA_A1" data-zona="PLATEA" x="7.41" y="60.3" width="10.6" height="10.6" rx="2.1" ry="2.1"/>
</g>
</g>
</g>
<g id="LATERALE_DX">
<g id="LATERALE_DX_12">
<g class="st6">
<text class="st3" transform="translate(157.01 42.5)"><tspan x="0" y="0">12</tspan></text>
</g>
<rect class="posto posto st2" data-posto="LATERALE_DX_12" data-zona="LATERALE" x="154.61" y="35.9" width="10.6" height="10.6" rx="2.1" ry="2.1"/>
</g>
<g id="LATERALE_DX_11">
<g class="st6">
<g class="st6">
<text class="st3" transform="translate(143.81 42.5)"><tspan x="0" y="0">1</tspan></text>
</g>
<g class="st6">
<text class="st3" transform="translate(146.26 42.5)"><tspan x="0" y="0">1</tspan></text>
</g>
</g>
<rect class="posto posto st2" data-posto="LATERALE_DX_11" data-zona="LATERALE" x="141.21" y="35.9" width="10.6" height="10.6" rx="2.1" ry="2.1"/>
</g>
<g id="LATERALE_DX_10">
<g class="st6">
<text class="st3" transform="translate(157.01 28.1)"><tspan x="0" y="0">10</tspan></text>
</g>
<rect class="posto posto st2" data-posto="LATERALE_DX_10" data-zona="LATERALE" x="154.61" y="21.5" width="10.6" height="10.6" rx="2.1" ry="2.1"/>
</g>
<g id="LATERALE_DX_9">
<g class="st6">
<text class="st3" transform="translate(143.81 28.1)"><tspan x="0" y="0">9</tspan></text>
</g>
<rect class="posto posto st2" data-posto="LATERALE_DX_9" data-zona="LATERALE" x="141.21" y="21.5" width="10.6" height="10.6" rx="2.1" ry="2.1"/>
</g>
<g id="LATERALE_DX_8">
<g class="st6">
<text class="st3" transform="translate(157.01 13.2)"><tspan x="0" y="0">8</tspan></text>
</g>
<rect class="posto posto st2" data-posto="LATERALE_DX_8" data-zona="LATERALE" x="154.61" y="6.6" width="10.6" height="10.6" rx="2.1" ry="2.1"/>
</g>
<g id="LATERALE_DX_7">
<g class="st6">
<text class="st3" transform="translate(143.81 13.2)"><tspan x="0" y="0">7</tspan></text>
</g>
<rect class="posto posto st2" data-posto="LATERALE_DX_7" data-zona="LATERALE" x="141.21" y="6.6" width="10.6" height="10.6" rx="2.1" ry="2.1"/>
</g>
</g>
<g id="LATERALE_SX">
<g id="LATERALE_SX_6">
<g class="st6">
<text class="st3" transform="translate(24.71 42.5)"><tspan x="0" y="0">6</tspan></text>
</g>
<rect class="posto posto st2" data-posto="LATERALE_SX_6" data-zona="LATERALE" x="20.81" y="35.9" width="10.6" height="10.6" rx="2.1" ry="2.1"/>
</g>
<g id="LATERALE_SX_5">
<g class="st6">
<text class="st3" transform="translate(11.41 42.5)"><tspan x="0" y="0">5</tspan></text>
</g>
<rect class="posto posto st2" data-posto="LATERALE_SX_5" data-zona="LATERALE" x="7.41" y="35.9" width="10.6" height="10.6" rx="2.1" ry="2.1"/>
</g>
<g id="LATERALE_SX_4">
<g class="st6">
<text class="st3" transform="translate(24.71 28.1)"><tspan x="0" y="0">4</tspan></text>
</g>
<rect class="posto posto st2" data-posto="LATERALE_SX_4" data-zona="LATERALE" x="20.81" y="21.5" width="10.6" height="10.6" rx="2.1" ry="2.1"/>
</g>
<g id="LATERALE_SX_3">
<g class="st6">
<text class="st3" transform="translate(11.41 28.1)"><tspan x="0" y="0">3</tspan></text>
</g>
<rect class="posto posto st2" data-posto="LATERALE_SX_3" data-zona="LATERALE" x="7.41" y="21.5" width="10.6" height="10.6" rx="2.1" ry="2.1"/>
</g>
<g id="LATERALE_SX_2">
<g class="st6">
<text class="st3" transform="translate(24.71 13.2)"><tspan x="0" y="0">2</tspan></text>
</g>
<rect class="posto posto st2" data-posto="LATERALE_SX_2" data-zona="LATERALE" x="20.81" y="6.6" width="10.6" height="10.6" rx="2.1" ry="2.1"/>
</g>
<g id="LATERALE_SX_1">
<g class="st6">
<text class="st3" transform="translate(11.41 13.2)"><tspan x="0" y="0">1</tspan></text>
</g>
<rect class="posto posto st2" data-posto="LATERALE_SX_1" data-zona="LATERALE" x="7.41" y="6.6" width="10.6" height="10.6" rx="2.1" ry="2.1"/>
</g>
</g>
<g id="varie">
<rect class="posto st5" data-posto="varie" data-zona="varie" id="PALCO" x="35.53" y="6.3" width="101.3" height="40.2"/>
<g class="st6">
<text class="st1" transform="translate(1.85 138.64)"><tspan x="0" y="0">B</tspan></text>
</g>
<g class="st6">
<text class="st1" transform="translate(1.85 153.04)"><tspan x="0" y="0">C</tspan></text>
</g>
<g class="st6">
<text class="st1" transform="translate(1.85 122.94)"><tspan x="0" y="0">A</tspan></text>
</g>
<g class="st6">
<text class="st1" transform="translate(1.85 82.35)"><tspan x="0" y="0">B</tspan></text>
</g>
<g class="st6">
<text class="st1" transform="translate(1.85 96.75)"><tspan x="0" y="0">C</tspan></text>
</g>
<g class="st6">
<text class="st1" transform="translate(1.85 66.65)"><tspan x="0" y="0">A</tspan></text>
</g>
<g class="st6">
<g class="st6">
<text class="st7" transform="translate(55.52 55.47)"><tspan x="0" y="0">P</tspan></text>
</g>
<g class="st6">
<text class="st10" transform="translate(67.19 55.47)"><tspan x="0" y="0">L</tspan></text>
</g>
<g class="st6">
<text class="st13" transform="translate(78.6 55.47)"><tspan x="0" y="0">A</tspan></text>
</g>
<g class="st6">
<text class="st8" transform="translate(89.96 55.47)"><tspan x="0" y="0">T</tspan></text>
</g>
<g class="st6">
<text class="st11" transform="translate(101.31 55.47)"><tspan x="0" y="0">E</tspan></text>
</g>
<g class="st6">
<text class="st7" transform="translate(113 55.47)"><tspan x="0" y="0">A</tspan></text>
</g>
</g>
<g class="st6">
<g class="st6">
<text class="st12" transform="translate(44.55 110.68)"><tspan x="0" y="0">G</tspan></text>
</g>
<g class="st6">
<text class="st7" transform="translate(56.86 110.68)"><tspan x="0" y="0">A</tspan></text>
</g>
<g class="st6">
<text class="st7" transform="translate(68.71 110.68)"><tspan x="0" y="0">LL</tspan></text>
</g>
<g class="st6">
<text class="st9" transform="translate(91.1 110.68)"><tspan x="0" y="0">ER</tspan></text>
</g>
<g class="st6">
<text class="st7" transform="translate(114.47 110.68)"><tspan x="0" y="0">IA</tspan></text>
</g>
</g>
</g>
</g>
</g>
</svg>